STARTCHAR 0xA940
ENCODING 43328
SWIDTH 886 0
DWIDTH 12 0
BBX 12 12 0 -2
BITMAP
0000
0600
0700
0400
0400
0400
0400
0400
0400
0400
0400
0000
ENDCHAR
STARTCHAR 0xA941
ENCODING 43329
SWIDTH 886 0
DWIDTH 12 0
BBX 12 12 0 -2
BITMAP
0000
0200
1300
1A00
1200
1200
1200
1200
1200
1200
0200
0000
ENDCHAR
STARTCHAR 0xA942
ENCODING 43330
SWIDTH 886 0
DWIDTH 12 0
BBX 12 12 0 -2
BITMAP
0000
2080
34C0
2680
2480
2480
2480
2480
2480
2480
2480
0000
ENDCHAR
STARTCHAR 0xA943
ENCODING 43331
SWIDTH 886 0
DWIDTH 12 0
BBX 12 12 0 -2
BITMAP
0060
1060
0880
0500
0200
0500
1880
00C0
0080
0000
0000
0000
ENDCHAR
STARTCHAR 0xA944
ENCODING 43332
SWIDTH 886 0
DWIDTH 12 0
BBX 12 12 0 -2
BITMAP
0800
0C00
1180
1100
0A00
0600
0900
1080
1080
0900
0600
0000
ENDCHAR
STARTCHAR 0xA945
ENCODING 43333
SWIDTH 886 0
DWIDTH 12 0
BBX 12 12 0 -2
BITMAP
0000
0200
0240
3FE0
0000
0000
0000
0000
0000
0000
0000
0000
ENDCHAR
STARTCHAR 0xA946
ENCODING 43334
SWIDTH 886 0
DWIDTH 12 0
BBX 12 12 0 -2
BITMAP
0000
0400
0440
7FE0
0000
0040
7FE0
0000
0000
0000
0000
0000
ENDCHAR
STARTCHAR 0xA947
ENCODING 43335
SWIDTH 886 0
DWIDTH 12 0
BBX 12 12 0 -2
BITMAP
0000
0400
0440
7FE0
0000
0080
3FC0
0000
0040
7FE0
0000
0000
ENDCHAR
STARTCHAR 0xA948
ENCODING 43336
SWIDTH 886 0
DWIDTH 12 0
BBX 12 12 0 -2
BITMAP
0880
0FC0
1100
2100
4900
0500
0200
0500
0980
1100
2000
0000
ENDCHAR
STARTCHAR 0xA949
ENCODING 43337
SWIDTH 886 0
DWIDTH 12 0
BBX 12 12 0 -2
BITMAP
1F00
2080
7FC0
8420
8420
97A0
9420
9420
7FC0
2080
1F00
0000
ENDCHAR
STARTCHAR 0xA951
ENCODING 43345
SWIDTH 886 0
DWIDTH 12 0
BBX 12 12 0 -2
BITMAP
0000
4B60
4B60
52A0
52A0
6220
6220
5220
5220
4A20
4A20
0000
ENDCHAR
STARTCHAR 0xA952
ENCODING 43346
SWIDTH 886 0
DWIDTH 12 0
BBX 12 12 0 -2
BITMAP
0000
3000
1000
1000
1400
12C0
1320
1220
1220
1220
3A20
0000
ENDCHAR
STARTCHAR 0xA953
ENCODING 43347
SWIDTH 886 0
DWIDTH 12 0
BBX 12 12 0 -2
BITMAP
0000
6000
2000
2020
20C0
2520
2AC0
2B00
2AC0
7520
00C0
0000
ENDCHAR
STARTCHAR 0xA954
ENCODING 43348
SWIDTH 886 0
DWIDTH 12 0
BBX 12 12 0 -2
BITMAP
0000
0060
0020
0020
0120
8020
6920
5520
5520
5520
5570
0000
ENDCHAR
STARTCHAR 0xA955
ENCODING 43349
SWIDTH 886 0
DWIDTH 12 0
BBX 12 12 0 -2
BITMAP
0400
0E00
1F00
0E00
0400
0000
0400
0E00
1F00
0E00
0400
0000
ENDCHAR
STARTCHAR 0xA957
ENCODING 43351
SWIDTH 886 0
DWIDTH 12 0
BBX 12 12 0 -2
BITMAP
0000
0000
0400
0400
0400
0000
0400
0400
0400
0000
0000
0000
ENDCHAR
STARTCHAR 0xA968
ENCODING 43368
SWIDTH 886 0
DWIDTH 12 0
BBX 12 12 0 -2
BITMAP
0000
0000
6D80
0000
0000
0000
0000
0000
0000
0000
0000
0000
ENDCHAR
STARTCHAR 0xA969
ENCODING 43369
SWIDTH 886 0
DWIDTH 12 0
BBX 12 12 0 -2
BITMAP
0000
0000
75C0
0000
0000
0000
0000
0000
0000
0000
0000
0000
ENDCHAR
STARTCHAR 0xA96A
ENCODING 43370
SWIDTH 886 0
DWIDTH 12 0
BBX 12 12 0 -2
BITMAP
0000
0000
CCC0
3330
0000
0000
0000
0000
0000
0000
0000
0000
ENDCHAR
STARTCHAR 0xA96B
ENCODING 43371
SWIDTH 886 0
DWIDTH 12 0
BBX 12 12 0 -2
BITMAP
0000
0000
CCC0
3330
0000
CCC0
3330
0000
0000
0000
0000
0000
ENDCHAR
STARTCHAR 0xA96C
ENCODING 43372
SWIDTH 886 0
DWIDTH 12 0
BBX 12 12 0 -2
BITMAP
0000
0000
0000
0000
0000
0000
0000
0000
0000
0000
6D80
0000
ENDCHAR
STARTCHAR 0xA96D
ENCODING 43373
SWIDTH 886 0
DWIDTH 12 0
BBX 12 12 0 -2
BITMAP
0000
0000
0000
0000
0000
0000
0000
0000
0000
0000
75C0
0000
ENDCHAR
STARTCHAR 0xA96E
ENCODING 43374
SWIDTH 886 0
DWIDTH 12 0
BBX 12 12 0 -2
BITMAP
0000
0000
0000
0000
0000
0000
0000
0000
0000
CCC0
3330
0000
ENDCHAR
STARTCHAR 0xA96F
ENCODING 43375
SWIDTH 886 0
DWIDTH 12 0
BBX 12 12 0 -2
BITMAP
0000
0000
0000
0000
0300
0780
0780
0380
0080
0100
0200
0000
ENDCHAR
STARTCHAR 0xA970
ENCODING 43376
SWIDTH 886 0
DWIDTH 12 0
BBX 12 12 0 -2
BITMAP
0000
0000
0000
0000
0000
0000
0800
0400
0200
0300
0200
0000
ENDCHAR
STARTCHAR 0xA971
ENCODING 43377
SWIDTH 886 0
DWIDTH 12 0
BBX 12 12 0 -2
BITMAP
0000
0000
0000
0000
0000
0000
0000
0600
0F00
0F00
0600
0000
ENDCHAR
STARTCHAR 0xA972
ENCODING 43378
SWIDTH 886 0
DWIDTH 12 0
BBX 12 12 0 -2
BITMAP
0600
0F00
0F00
0600
0000
0600
0F00
0F00
0600
0100
0600
0000
ENDCHAR
STARTCHAR 0xA973
ENCODING 43379
SWIDTH 886 0
DWIDTH 12 0
BBX 12 12 0 -2
BITMAP
0000
0600
0F00
0F00
0600
0000
0600
0F00
0F00
0600
0000
0000
ENDCHAR
STARTCHAR 0xA974
ENCODING 43380
SWIDTH 886 0
DWIDTH 12 0
BBX 12 12 0 -2
BITMAP
0C00
1A00
1900
0180
0100
0200
0200
0000
0200
0700
0200
0000
ENDCHAR
STARTCHAR 0xA975
ENCODING 43381
SWIDTH 886 0
DWIDTH 12 0
BBX 12 12 0 -2
BITMAP
0200
0700
0700
0700
0700
0200
0200
0000
0200
0700
0200
0000
ENDCHAR
STARTCHAR 0xA976
ENCODING 43382
SWIDTH 886 0
DWIDTH 12 0
BBX 12 12 0 -2
BITMAP
0200
0400
0800
0800
0800
0800
0800
0800
0800
0400
0200
0000
ENDCHAR
STARTCHAR 0xA977
ENCODING 43383
SWIDTH 886 0
DWIDTH 12 0
BBX 12 12 0 -2
BITMAP
0800
0400
0200
0200
0200
0200
0200
0200
0200
0400
0800
0000
ENDCHAR
STARTCHAR 0xA978
ENCODING 43384
SWIDTH 886 0
DWIDTH 12 0
BBX 12 12 0 -2
BITMAP
0200
0400
0400
0400
0400
0800
0400
0400
0400
0400
0200
0000
ENDCHAR
STARTCHAR 0xA979
ENCODING 43385
SWIDTH 886 0
DWIDTH 12 0
BBX 12 12 0 -2
BITMAP
0800
0400
0400
0400
0400
0200
0400
0400
0400
0400
0800
0000
ENDCHAR
STARTCHAR 0xA97A
ENCODING 43386
SWIDTH 886 0
DWIDTH 12 0
BBX 12 12 0 -2
BITMAP
0200
0400
0800
0800
0800
0800
0800
0800
0800
0400
0200
0000
ENDCHAR
STARTCHAR 0xA97B
ENCODING 43387
SWIDTH 886 0
DWIDTH 12 0
BBX 12 12 0 -2
BITMAP
0800
0400
0200
0200
0200
0200
0200
0200
0200
0400
0800
0000
ENDCHAR
STARTCHAR 0xA97C
ENCODING 43388
SWIDTH 886 0
DWIDTH 12 0
BBX 12 12 0 -2
BITMAP
0000
0000
0500
0500
1FC0
0500
0500
1FC0
0A00
0A00
0000
0000
ENDCHAR
STARTCHAR 0xA97D
ENCODING 43389
SWIDTH 886 0
DWIDTH 12 0
BBX 12 12 0 -2
BITMAP
0000
0200
0500
0880
0500
0200
0D20
10C0
2080
1140
0E20
0000
ENDCHAR
STARTCHAR 0xA97E
ENCODING 43390
SWIDTH 886 0
DWIDTH 12 0
BBX 12 12 0 -2
BITMAP
0000
0000
2480
1500
0E00
3F80
0E00
1500
2480
0000
0000
0000
ENDCHAR
STARTCHAR 0xA980
ENCODING 43392
SWIDTH 886 0
DWIDTH 12 0
BBX 12 12 0 -2
BITMAP
0000
0000
0000
0400
0400
1F00
0400
0400
0000
0000
0000
0000
ENDCHAR
STARTCHAR 0xA981
ENCODING 43393
SWIDTH 886 0
DWIDTH 12 0
BBX 12 12 0 -2
BITMAP
0000
0000
0000
0000
0000
0F00
0000
0000
0000
0000
0000
0000
ENDCHAR
STARTCHAR 0xA982
ENCODING 43394
SWIDTH 886 0
DWIDTH 12 0
BBX 12 12 0 -2
BITMAP
0000
00C0
0300
0C00
3000
C000
3000
0C00
0300
00C0
0000
0000
ENDCHAR
STARTCHAR 0xA983
ENCODING 43395
SWIDTH 886 0
DWIDTH 12 0
BBX 12 12 0 -2
BITMAP
0000
6000
1800
0600
0180
0060
0180
0600
1800
6000
0000
0000
ENDCHAR
STARTCHAR 0xA984
ENCODING 43396
SWIDTH 886 0
DWIDTH 12 0
BBX 12 12 0 -2
BITMAP
0000
0000
0000
0000
1F80
0000
1F80
0000
0000
0000
0000
0000
ENDCHAR
STARTCHAR 0xA985
ENCODING 43397
SWIDTH 886 0
DWIDTH 12 0
BBX 12 12 0 -2
BITMAP
0000
4000
2000
1000
0800
0400
0200
0100
0080
0040
0000
0000
ENDCHAR
STARTCHAR 0xA986
ENCODING 43398
SWIDTH 886 0
DWIDTH 12 0
BBX 12 12 0 -2
BITMAP
0200
0700
0A80
1240
0A00
0600
0300
0280
1240
0A40
0780
0000
ENDCHAR
STARTCHAR 0xA987
ENCODING 43399
SWIDTH 886 0
DWIDTH 12 0
BBX 12 12 0 -2
BITMAP
0000
0800
1420
1440
0880
0100
0200
0480
0940
1140
2080
0000
ENDCHAR
STARTCHAR 0xA988
ENCODING 43400
SWIDTH 886 0
DWIDTH 12 0
BBX 12 12 0 -2
BITMAP
0000
1E00
2100
4C80
9240
9240
9240
9280
4D20
2040
1F80
0000
ENDCHAR
ENDFONT
